<svg id="Calque_1" data-name="Calque 1" xmlns="http://www.w3.org/2000/svg" viewBox="0 0 50 64.21"><defs><style>.cls-1{fill:#001d86;}.cls-2{fill:#fff;}</style></defs><path class="cls-1" d="M24.81,0C12.35,13.57.14,23.66.14,40.78c0,12.15,11.23,23.29,24.67,23.29s24.86-9.48,24.86-24.85S37.52,13.44,24.81,0Z"/><circle class="cls-1" cx="25.06" cy="39.55" r="24.36"/><path class="cls-1" d="M25,64.21a25,25,0,1,1,25-25A25,25,0,0,1,25,64.21Zm0-48.77A23.77,23.77,0,1,0,48.77,39.21,23.8,23.8,0,0,0,25,15.44Z"/><path class="cls-2" d="M25,23.56A16.39,16.39,0,1,0,41.36,39.94,16.4,16.4,0,0,0,25,23.56ZM11.38,39.94A13.58,13.58,0,0,1,16.1,29.65a6,6,0,0,1-.48.94c-.67,1.1-1.9,2.41-1.72,4.65a4.28,4.28,0,0,0,2.28,3.65,9.09,9.09,0,0,0,3,1.41c1.27.35,2.08.23,3.1,1.31a2.09,2.09,0,0,1,.3,1.52c-.1.43-1.2,1-1.36,1.56-.4,1.24.49,1.17,1.9,2.51a4.69,4.69,0,0,1-.23,6.18A13.61,13.61,0,0,1,11.38,39.94ZM22,40.61c-.56-1.28-2.91-2.35-2.81-3.46.08-.82.74-1.49,2.14-1s2.67-.51,3.17-2.1,1.55-.91,2.25-2-.56-1.33-1.69-1.26-1.81-1.82-2.3-1.33-.75,1.18-1.43.41a4,4,0,0,1-1.13-2.62,13.14,13.14,0,0,1,3.34-.79,3,3,0,0,1,1.94.73c.31.3.34.67.61,1.1a1.3,1.3,0,0,0,1.83.42c.61-.4,1.13-1.12.33-1.86a12.87,12.87,0,0,1,4.05,1.69A2.5,2.5,0,0,1,33,29.68c.3,1.68.4.85,1.52,1.91s.72,2.76.88,4.54c.23,2.54.91,3.19,2.38,3.54a1.88,1.88,0,0,0,.84,0c0,.08,0,.16,0,.24A13.62,13.62,0,0,1,25,53.54h-.27a14.92,14.92,0,0,1,2.89-2.9c1.27-.7,3.38-1.4,4.37-3s1.28-4.34-.2-4.85-2,.26-2.55-.45-.39-1.55-1.69-2.39a5.06,5.06,0,0,0-3.05-.62C23.81,39.49,22.4,41.52,22,40.61Z"/><path class="cls-1" d="M25,25.08A14.85,14.85,0,1,1,10.11,39.93,14.86,14.86,0,0,1,25,25.08m0-1.71A16.56,16.56,0,1,0,41.51,39.93,16.56,16.56,0,0,0,25,23.37Z"/><path class="cls-2" d="M2.9,35.52v0l.35,1.2-.66,0-.43-1.51.14-.72,6.09,1.22-.17.82Z"/><path class="cls-2" d="M7.28,29.69c1.93.84,2.68,2,2.12,3.34s-1.87,1.48-3.76.68S3,31.58,3.56,30.39,5.47,28.91,7.28,29.69ZM6,32.91c1.48.65,2.52.54,2.83-.18s-.4-1.6-1.85-2.22-2.48-.64-2.83.18S4.44,32.25,6,32.91Z"/><path class="cls-2" d="M10.45,25.47c1.66,1.3,2.07,2.66,1.2,3.77s-2.19.94-3.82-.31-2-2.73-1.15-3.75S8.9,24.24,10.45,25.47ZM8.37,28.25c1.27,1,2.31,1.16,2.79.54s0-1.64-1.21-2.62-2.24-1.25-2.79-.54S7.05,27.21,8.37,28.25Z"/><path class="cls-2" d="M12.91,21.87c.71,1.11.46,2-.23,2.48s-1.59.27-2.27-.77a1.69,1.69,0,0,1,.26-2.47C11.42,20.63,12.28,20.88,12.91,21.87ZM11,23.18c.41.68,1,1,1.45.73s.38-.94-.06-1.63-.93-1.05-1.44-.73S10.55,22.53,11,23.18ZM14,26.57l-.29-7.42.47-.3.28,7.43Zm3.78-4.77c.7,1.1.45,2-.24,2.47s-1.59.27-2.26-.77A1.66,1.66,0,0,1,15.57,21C16.32,20.55,17.17,20.8,17.81,21.8Zm-1.94,1.31c.41.67,1,1,1.45.73s.37-.95-.07-1.64-.93-1.05-1.44-.73S15.45,22.45,15.87,23.11Z"/><path class="cls-2" d="M21.34,19.65c0-.58-.09-1.07-.14-1.48l1.29-.09.12.64h0a1.77,1.77,0,0,1,1.43-.85c1-.07,1.76.52,1.86,1.89l.19,2.75-1.5.11L24.45,20c0-.6-.29-1-.83-1a.79.79,0,0,0-.72.6.82.82,0,0,0,0,.36l.19,2.68-1.5.11Z"/><path class="cls-2" d="M28.86,21.13c-.1.59.42,1,1.1,1.2a4.2,4.2,0,0,0,1.33.13l0,1a4.78,4.78,0,0,1-1.77-.14,2.28,2.28,0,0,1-1.9-2.94,2.38,2.38,0,0,1,3-1.82,2.1,2.1,0,0,1,1.51,2.79,2.5,2.5,0,0,1-.2.54Zm1.95-.53a.86.86,0,0,0-.58-1.13,1,1,0,0,0-1.13.69Z"/><path class="cls-2" d="M36.87,25.21c-.33.51-.58.94-.77,1.28L35,25.8l.3-.59,0,0A1.73,1.73,0,0,1,33.59,25c-.82-.53-1.11-1.41-.34-2.62l1.46-2.32,1.27.8L34.64,23c-.37.58-.39,1,0,1.32a.8.8,0,0,0,.91,0,1,1,0,0,0,.21-.23l1.48-2.36,1.27.8Z"/><path class="cls-2" d="M42.52,24.64l-1,.89.72.8-.8.72-.72-.81-1.26,1.13c-.41.38-.51.66-.21,1a2.17,2.17,0,0,0,.33.31l-.82.74a3.34,3.34,0,0,1-.74-.64,1.6,1.6,0,0,1-.45-1.11,1.88,1.88,0,0,1,.75-1.23l1.43-1.28-.43-.47.8-.72.42.48.75-.67Z"/><path class="cls-2" d="M42,28.71c.6-.33,1-.56,1.33-.78L44,29.05l-.73.47,0,0a1.42,1.42,0,0,1,1.48.66c.06.12.09.19.13.29l-1.19.67a2.17,2.17,0,0,0-.16-.37,1,1,0,0,0-1.15-.54,2.38,2.38,0,0,0-.29.13L40,31.55l-.74-1.31Z"/><path class="cls-2" d="M43.17,34.17c-.57.2-.69.86-.52,1.54a4.19,4.19,0,0,0,.53,1.23l-.9.44a4.87,4.87,0,0,1-.73-1.61,2.28,2.28,0,0,1,1.66-3.08,2.37,2.37,0,0,1,3,1.72,2.1,2.1,0,0,1-1.72,2.67,2.86,2.86,0,0,1-.57.09Zm1.41,1.46a.86.86,0,0,0,.7-1.05,1,1,0,0,0-1.15-.67Z"/><path class="cls-2" d="M38.71,41.91c-.75,1.15-1.85,1.75-2.05,3.5a7.49,7.49,0,0,0,.15,2.86Z"/><path class="cls-2" d="M6,47c-.54.28-.56,1-.29,1.6a4.24,4.24,0,0,0,.7,1.14l-.83.57a4.89,4.89,0,0,1-1-1.49,2.28,2.28,0,0,1,1.19-3.29A2.36,2.36,0,0,1,9,46.76a2.09,2.09,0,0,1-1.3,2.89,3,3,0,0,1-.55.18Zm1.6,1.23a.84.84,0,0,0,.54-1.14,1,1,0,0,0-1.23-.49Z"/><path class="cls-2" d="M8.92,50.2c.45-.37.82-.7,1.12-1l.84,1-.46.47,0,0a1.75,1.75,0,0,1,1.54.66c.63.75.61,1.73-.45,2.61L9.41,55.75l-1-1.16,2-1.65c.46-.39.64-.82.29-1.23a.81.81,0,0,0-.91-.24,1.18,1.18,0,0,0-.31.19L7.44,53.39l-1-1.15Z"/><path class="cls-2" d="M16,60.07a3.76,3.76,0,0,1-1.28-.47,2.3,2.3,0,0,1-1.06-3.32,2.49,2.49,0,0,1,3.62-.83,3.28,3.28,0,0,1,.9.72l-.72.83a2.05,2.05,0,0,0-.66-.54,1.23,1.23,0,0,0-1.77.51,1.24,1.24,0,0,0,.51,1.79,2.5,2.5,0,0,0,.83.29Z"/><path class="cls-2" d="M20.25,61.5l0-.47h0a1.75,1.75,0,0,1-1.47.21,1.44,1.44,0,0,1-1.15-1.77c.3-1.18,1.53-1.46,3.18-1v-.06c.06-.24,0-.61-.7-.8a2.86,2.86,0,0,0-1.37,0l0-1a4.08,4.08,0,0,1,1.92.06,1.84,1.84,0,0,1,1.54,2.48l-.4,1.58a6.14,6.14,0,0,0-.21,1.11Zm.38-2.19c-.76-.2-1.4-.17-1.54.37a.53.53,0,0,0,.44.69.81.81,0,0,0,.88-.33.92.92,0,0,0,.09-.23Z"/><path class="cls-2" d="M23.49,58.85c0-.68,0-1.13,0-1.54l1.29,0,0,.86h0a1.43,1.43,0,0,1,1.32-1,1.48,1.48,0,0,1,.31,0v1.37a2.18,2.18,0,0,0-.41,0,1,1,0,0,0-1,.73,1.51,1.51,0,0,0,0,.32L25,62l-1.5,0Z"/><path class="cls-2" d="M28,61.93c-.05-.3-.16-.85-.29-1.36l-1.27-5.23L27.88,55l.63,2.59h0a1.7,1.7,0,0,1,1.25-1,2.09,2.09,0,0,1,2.49,1.82,2.28,2.28,0,0,1-1.55,3A1.56,1.56,0,0,1,29.15,61h0l.09.65Zm1-2.29a1.35,1.35,0,0,0,.08.24.91.91,0,0,0,1,.47c.62-.15.89-.71.69-1.53s-.63-1.18-1.3-1a.93.93,0,0,0-.69.91,1.27,1.27,0,0,0,0,.26Z"/><path class="cls-2" d="M37.54,55.39a2.38,2.38,0,0,1-.87,3.45,2.32,2.32,0,0,1-3.37-.75,2.36,2.36,0,0,1,.9-3.45A2.3,2.3,0,0,1,37.54,55.39ZM34.6,57.25c.41.68,1,1,1.57.68s.52-1,.08-1.7-1-1-1.54-.69S34.24,56.66,34.6,57.25Z"/><path class="cls-2" d="M37.91,54c-.44-.38-.82-.68-1.15-.94l.85-1,.53.37,0,0a1.75,1.75,0,0,1,.41-1.62,1.72,1.72,0,0,1,2.65,0l2.09,1.81-1,1.14-2-1.7c-.46-.39-.91-.5-1.27-.09a.82.82,0,0,0-.08.94,1.14,1.14,0,0,0,.24.27l2,1.76-1,1.14Z"/><path class="cls-2" d="M43.24,48.93c.56.21,1.08-.23,1.37-.87A3.86,3.86,0,0,0,45,46.77L46,47a4.63,4.63,0,0,1-.45,1.71,2.28,2.28,0,0,1-3.22,1.36A2.38,2.38,0,0,1,41,46.83a2.09,2.09,0,0,1,3-1,3.38,3.38,0,0,1,.51.28Zm-.18-2a.86.86,0,0,0-1.21.38,1,1,0,0,0,.48,1.24Z"/></svg>